<svg xmlns="http://www.w3.org/2000/svg" xmlns:xlink="http://www.w3.org/1999/xlink" width="690" zoomAndPan="magnify" viewBox="0 0 517.5 374.999991" height="500" preserveAspectRatio="xMidYMid meet" version="1.0"><defs><filter x="0%" y="0%" width="100%" height="100%" id="7ee2bd27fc"><feColorMatrix values="0 0 0 0 1 0 0 0 0 1 0 0 0 0 1 0 0 0 1 0" color-interpolation-filters="sRGB"></feColorMatrix></filter><filter x="0%" y="0%" width="100%" height="100%" id="e2aa639c23"><feColorMatrix values="0 0 0 0 1 0 0 0 0 1 0 0 0 0 1 0.2126 0.7152 0.0722 0 0" color-interpolation-filters="sRGB"></feColorMatrix></filter><g></g><clipPath id="b827687234"><path d="M 31.738281 126.472656 L 145.628906 126.472656 L 145.628906 248.605469 L 31.738281 248.605469 Z M 31.738281 126.472656 " clip-rule="nonzero"></path></clipPath><mask id="660071b417"><g filter="url(#7ee2bd27fc)"><g filter="url(#e2aa639c23)" transform="matrix(0.364882, 0, 0, 0.365126, -53.52967, 3.882375)"><image x="0" y="0" width="1536" height="1024" preserveAspectRatio="xMidYMid meet"></image></g></g></mask><clipPath id="d35ca41a30"><path d="M 0 0.179688 L 517 0.179688 L 517 374.816406 L 0 374.816406 Z M 0 0.179688 " clip-rule="nonzero"></path></clipPath><clipPath id="640e8cd1a0"><path d="M 0 0.179688 L 517 0.179688 L 517 374.816406 L 0 374.816406 Z M 0 0.179688 " clip-rule="nonzero"></path></clipPath><clipPath id="ff05ae5140"><path d="M 0 0.179688 L 517 0.179688 L 517 374.816406 L 0 374.816406 Z M 0 0.179688 " clip-rule="nonzero"></path></clipPath><clipPath id="50d5029461"><path d="M 0 0.179688 L 517 0.179688 L 517 374.816406 L 0 374.816406 Z M 0 0.179688 " clip-rule="nonzero"></path></clipPath><linearGradient x1="-167.997407" gradientTransform="matrix(0.936644, 0, 0, 0.937942, 157.353836, 126.064767)" y1="65.5" x2="383.973484" gradientUnits="userSpaceOnUse" y2="65.5" id="f3576fa1d4"><stop stop-opacity="1" stop-color="rgb(0%, 31.369019%, 67.83905%)" offset="0"></stop><stop stop-opacity="1" stop-color="rgb(0%, 31.369019%, 67.83905%)" offset="0.25"></stop><stop stop-opacity="1" stop-color="rgb(0.0747681%, 31.562805%, 67.970276%)" offset="0.3125"></stop><stop stop-opacity="1" stop-color="rgb(0.221252%, 31.941223%, 68.228149%)" offset="0.320312"></stop><stop stop-opacity="1" stop-color="rgb(0.366211%, 32.313538%, 68.481445%)" offset="0.328125"></stop><stop stop-opacity="1" stop-color="rgb(0.509644%, 32.684326%, 68.734741%)" offset="0.335938"></stop><stop stop-opacity="1" stop-color="rgb(0.654602%, 33.056641%, 68.986511%)" offset="0.34375"></stop><stop stop-opacity="1" stop-color="rgb(0.799561%, 33.427429%, 69.239807%)" offset="0.351562"></stop><stop stop-opacity="1" stop-color="rgb(0.942993%, 33.798218%, 69.493103%)" offset="0.359375"></stop><stop stop-opacity="1" stop-color="rgb(1.087952%, 34.170532%, 69.746399%)" offset="0.367188"></stop><stop stop-opacity="1" stop-color="rgb(1.23291%, 34.541321%, 69.998169%)" offset="0.375"></stop><stop stop-opacity="1" stop-color="rgb(1.376343%, 34.913635%, 70.251465%)" offset="0.382812"></stop><stop stop-opacity="1" stop-color="rgb(1.521301%, 35.284424%, 70.504761%)" offset="0.390625"></stop><stop stop-opacity="1" stop-color="rgb(1.66626%, 35.656738%, 70.756531%)" offset="0.398437"></stop><stop stop-opacity="1" stop-color="rgb(1.809692%, 36.027527%, 71.009827%)" offset="0.40625"></stop><stop stop-opacity="1" stop-color="rgb(1.954651%, 36.398315%, 71.263123%)" offset="0.414063"></stop><stop stop-opacity="1" stop-color="rgb(2.099609%, 36.77063%, 71.514893%)" offset="0.421875"></stop><stop stop-opacity="1" stop-color="rgb(2.243042%, 37.141418%, 71.768188%)" offset="0.429688"></stop><stop stop-opacity="1" stop-color="rgb(2.388%, 37.513733%, 72.021484%)" offset="0.4375"></stop><stop stop-opacity="1" stop-color="rgb(2.532959%, 37.884521%, 72.273254%)" offset="0.445312"></stop><stop stop-opacity="1" stop-color="rgb(2.676392%, 38.256836%, 72.52655%)" offset="0.453125"></stop><stop stop-opacity="1" stop-color="rgb(2.82135%, 38.627625%, 72.779846%)" offset="0.460938"></stop><stop stop-opacity="1" stop-color="rgb(2.964783%, 38.999939%, 73.031616%)" offset="0.46875"></stop><stop stop-opacity="1" stop-color="rgb(3.109741%, 39.370728%, 73.284912%)" offset="0.476562"></stop><stop stop-opacity="1" stop-color="rgb(3.2547%, 39.741516%, 73.538208%)" offset="0.484375"></stop><stop stop-opacity="1" stop-color="rgb(3.398132%, 40.113831%, 73.789978%)" offset="0.492188"></stop><stop stop-opacity="1" stop-color="rgb(3.543091%, 40.484619%, 74.043274%)" offset="0.5"></stop><stop stop-opacity="1" stop-color="rgb(3.688049%, 40.856934%, 74.29657%)" offset="0.507812"></stop><stop stop-opacity="1" stop-color="rgb(3.831482%, 41.227722%, 74.54834%)" offset="0.515625"></stop><stop stop-opacity="1" stop-color="rgb(3.97644%, 41.600037%, 74.801636%)" offset="0.523438"></stop><stop stop-opacity="1" stop-color="rgb(4.121399%, 41.970825%, 75.054932%)" offset="0.53125"></stop><stop stop-opacity="1" stop-color="rgb(4.264832%, 42.341614%, 75.308228%)" offset="0.539062"></stop><stop stop-opacity="1" stop-color="rgb(4.40979%, 42.713928%, 75.559998%)" offset="0.546875"></stop><stop stop-opacity="1" stop-color="rgb(4.554749%, 43.084717%, 75.813293%)" offset="0.554688"></stop><stop stop-opacity="1" stop-color="rgb(4.698181%, 43.457031%, 76.066589%)" offset="0.5625"></stop><stop stop-opacity="1" stop-color="rgb(4.84314%, 43.82782%, 76.318359%)" offset="0.570312"></stop><stop stop-opacity="1" stop-color="rgb(4.988098%, 44.200134%, 76.571655%)" offset="0.578125"></stop><stop stop-opacity="1" stop-color="rgb(5.131531%, 44.570923%, 76.824951%)" offset="0.585938"></stop><stop stop-opacity="1" stop-color="rgb(5.276489%, 44.941711%, 77.076721%)" offset="0.59375"></stop><stop stop-opacity="1" stop-color="rgb(5.421448%, 45.314026%, 77.330017%)" offset="0.601562"></stop><stop stop-opacity="1" stop-color="rgb(5.56488%, 45.684814%, 77.583313%)" offset="0.609375"></stop><stop stop-opacity="1" stop-color="rgb(5.709839%, 46.057129%, 77.835083%)" offset="0.617188"></stop><stop stop-opacity="1" stop-color="rgb(5.853271%, 46.427917%, 78.088379%)" offset="0.625"></stop><stop stop-opacity="1" stop-color="rgb(5.99823%, 46.800232%, 78.341675%)" offset="0.632812"></stop><stop stop-opacity="1" stop-color="rgb(6.143188%, 47.171021%, 78.593445%)" offset="0.640625"></stop><stop stop-opacity="1" stop-color="rgb(6.286621%, 47.543335%, 78.846741%)" offset="0.648438"></stop><stop stop-opacity="1" stop-color="rgb(6.43158%, 47.914124%, 79.100037%)" offset="0.65625"></stop><stop stop-opacity="1" stop-color="rgb(6.576538%, 48.284912%, 79.351807%)" offset="0.664063"></stop><stop stop-opacity="1" stop-color="rgb(6.719971%, 48.657227%, 79.605103%)" offset="0.671875"></stop><stop stop-opacity="1" stop-color="rgb(6.864929%, 49.028015%, 79.858398%)" offset="0.679688"></stop><stop stop-opacity="1" stop-color="rgb(7.009888%, 49.40033%, 80.110168%)" offset="0.6875"></stop><stop stop-opacity="1" stop-color="rgb(7.15332%, 49.771118%, 80.363464%)" offset="0.695312"></stop><stop stop-opacity="1" stop-color="rgb(7.298279%, 50.143433%, 80.61676%)" offset="0.703125"></stop><stop stop-opacity="1" stop-color="rgb(7.443237%, 50.514221%, 80.86853%)" offset="0.710938"></stop><stop stop-opacity="1" stop-color="rgb(7.58667%, 50.88501%, 81.121826%)" offset="0.71875"></stop><stop stop-opacity="1" stop-color="rgb(7.731628%, 51.257324%, 81.375122%)" offset="0.726562"></stop><stop stop-opacity="1" stop-color="rgb(7.876587%, 51.628113%, 81.628418%)" offset="0.734375"></stop><stop stop-opacity="1" stop-color="rgb(8.02002%, 52.000427%, 81.880188%)" offset="0.742187"></stop><stop stop-opacity="1" stop-color="rgb(8.164978%, 52.371216%, 82.133484%)" offset="0.75"></stop><stop stop-opacity="1" stop-color="rgb(8.309937%, 52.74353%, 82.38678%)" offset="0.757812"></stop><stop stop-opacity="1" stop-color="rgb(8.453369%, 53.114319%, 82.63855%)" offset="0.765625"></stop><stop stop-opacity="1" stop-color="rgb(8.598328%, 53.485107%, 82.891846%)" offset="0.773438"></stop><stop stop-opacity="1" stop-color="rgb(8.74176%, 53.857422%, 83.145142%)" offset="0.78125"></stop><stop stop-opacity="1" stop-color="rgb(8.886719%, 54.22821%, 83.396912%)" offset="0.789062"></stop><stop stop-opacity="1" stop-color="rgb(9.031677%, 54.600525%, 83.650208%)" offset="0.796875"></stop><stop stop-opacity="1" stop-color="rgb(9.17511%, 54.971313%, 83.903503%)" offset="0.804688"></stop><stop stop-opacity="1" stop-color="rgb(9.320068%, 55.343628%, 84.155273%)" offset="0.8125"></stop><stop stop-opacity="1" stop-color="rgb(9.465027%, 55.714417%, 84.408569%)" offset="0.820312"></stop><stop stop-opacity="1" stop-color="rgb(9.608459%, 56.086731%, 84.661865%)" offset="0.828125"></stop><stop stop-opacity="1" stop-color="rgb(9.753418%, 56.45752%, 84.913635%)" offset="0.835938"></stop><stop stop-opacity="1" stop-color="rgb(9.898376%, 56.828308%, 85.166931%)" offset="0.84375"></stop><stop stop-opacity="1" stop-color="rgb(10.041809%, 57.200623%, 85.420227%)" offset="0.851562"></stop><stop stop-opacity="1" stop-color="rgb(10.186768%, 57.571411%, 85.671997%)" offset="0.859375"></stop><stop stop-opacity="1" stop-color="rgb(10.331726%, 57.943726%, 85.925293%)" offset="0.867188"></stop><stop stop-opacity="1" stop-color="rgb(10.475159%, 58.314514%, 86.178589%)" offset="0.875"></stop><stop stop-opacity="1" stop-color="rgb(10.620117%, 58.686829%, 86.430359%)" offset="0.882812"></stop><stop stop-opacity="1" stop-color="rgb(10.765076%, 59.057617%, 86.683655%)" offset="0.890625"></stop><stop stop-opacity="1" stop-color="rgb(10.906982%, 59.42688%, 86.933899%)" offset="0.90625"></stop><stop stop-opacity="1" stop-color="rgb(10.978699%, 59.609985%, 87.059021%)" offset="0.9375"></stop><stop stop-opacity="1" stop-color="rgb(10.978699%, 59.609985%, 87.059021%)" offset="1"></stop></linearGradient><clipPath id="13ee623ecd"><rect x="0" width="517" y="0" height="375"></rect></clipPath><clipPath id="74711b5c45"><path d="M 0 0.179688 L 517 0.179688 L 517 374.816406 L 0 374.816406 Z M 0 0.179688 " clip-rule="nonzero"></path></clipPath><clipPath id="b5b2f704ef"><rect x="0" width="517" y="0" height="375"></rect></clipPath><clipPath id="ba92486b13"><rect x="0" width="517" y="0" height="375"></rect></clipPath><mask id="e00df92b03"><g filter="url(#7ee2bd27fc)"><g transform="matrix(1, 0, 0, 1, 0, -0.000000000000042438)"><g clip-path="url(#ba92486b13)"><g clip-path="url(#74711b5c45)"><g transform="matrix(1, 0, 0, 1, 0, -0.000000000000042438)"><g clip-path="url(#b5b2f704ef)"><g fill="#000000" fill-opacity="1"><g transform="translate(157.170233, 221.243449)"><g><path d="M 58.921875 0 L 43.671875 0 L 27.078125 -26.6875 L 21.40625 -22.609375 L 21.40625 0 L 7.96875 0 L 7.96875 -63.328125 L 21.40625 -63.328125 L 21.40625 -34.359375 L 26.6875 -41.796875 L 43.84375 -63.328125 L 58.734375 -63.328125 L 36.65625 -35.3125 Z M 58.921875 0 "></path></g></g></g><g fill="#000000" fill-opacity="1"><g transform="translate(216.087877, 221.243449)"><g><path d="M 41.234375 0 L 39.46875 -6.1875 L 38.765625 -6.1875 C 37.359375 -3.9375 35.351562 -2.195312 32.75 -0.96875 C 30.144531 0.25 27.1875 0.859375 23.875 0.859375 C 18.175781 0.859375 13.882812 -0.660156 11 -3.703125 C 8.113281 -6.753906 6.671875 -11.132812 6.671875 -16.84375 L 6.671875 -48.4375 L 19.890625 -48.4375 L 19.890625 -20.140625 C 19.890625 -16.648438 20.507812 -14.03125 21.75 -12.28125 C 22.988281 -10.53125 24.96875 -9.65625 27.6875 -9.65625 C 31.375 -9.65625 34.039062 -10.890625 35.6875 -13.359375 C 37.34375 -15.828125 38.171875 -19.921875 38.171875 -25.640625 L 38.171875 -48.4375 L 51.375 -48.4375 L 51.375 0 Z M 41.234375 0 "></path></g></g></g><g fill="#000000" fill-opacity="1"><g transform="translate(274.399016, 221.243449)"><g><path d="M 40.71875 -14.375 C 40.71875 -9.414062 38.988281 -5.632812 35.53125 -3.03125 C 32.082031 -0.4375 26.925781 0.859375 20.0625 0.859375 C 16.53125 0.859375 13.523438 0.617188 11.046875 0.140625 C 8.566406 -0.328125 6.242188 -1.023438 4.078125 -1.953125 L 4.078125 -12.859375 C 6.523438 -11.710938 9.285156 -10.75 12.359375 -9.96875 C 15.441406 -9.1875 18.148438 -8.796875 20.484375 -8.796875 C 25.285156 -8.796875 27.6875 -10.179688 27.6875 -12.953125 C 27.6875 -13.992188 27.367188 -14.835938 26.734375 -15.484375 C 26.097656 -16.140625 25 -16.878906 23.4375 -17.703125 C 21.875 -18.523438 19.796875 -19.484375 17.203125 -20.578125 C 13.472656 -22.140625 10.734375 -23.582031 8.984375 -24.90625 C 7.242188 -26.238281 5.972656 -27.765625 5.171875 -29.484375 C 4.378906 -31.203125 3.984375 -33.316406 3.984375 -35.828125 C 3.984375 -40.128906 5.648438 -43.457031 8.984375 -45.8125 C 12.328125 -48.164062 17.054688 -49.34375 23.171875 -49.34375 C 29.003906 -49.34375 34.679688 -48.070312 40.203125 -45.53125 L 36.21875 -36 C 33.789062 -37.039062 31.519531 -37.890625 29.40625 -38.546875 C 27.300781 -39.210938 25.148438 -39.546875 22.953125 -39.546875 C 19.054688 -39.546875 17.109375 -38.492188 17.109375 -36.390625 C 17.109375 -35.203125 17.734375 -34.175781 18.984375 -33.3125 C 20.242188 -32.445312 23 -31.160156 27.25 -29.453125 C 31.03125 -27.921875 33.800781 -26.488281 35.5625 -25.15625 C 37.320312 -23.832031 38.617188 -22.304688 39.453125 -20.578125 C 40.296875 -18.847656 40.71875 -16.78125 40.71875 -14.375 Z M 40.71875 -14.375 "></path></g></g></g><g fill="#000000" fill-opacity="1"><g transform="translate(318.500605, 221.243449)"><g><path d="M 27.328125 -9.65625 C 29.640625 -9.65625 32.414062 -10.160156 35.65625 -11.171875 L 35.65625 -1.34375 C 32.363281 0.125 28.316406 0.859375 23.515625 0.859375 C 18.234375 0.859375 14.382812 -0.472656 11.96875 -3.140625 C 9.5625 -5.804688 8.359375 -9.8125 8.359375 -15.15625 L 8.359375 -38.515625 L 2.03125 -38.515625 L 2.03125 -44.09375 L 9.3125 -48.515625 L 13.125 -58.734375 L 21.578125 -58.734375 L 21.578125 -48.4375 L 35.125 -48.4375 L 35.125 -38.515625 L 21.578125 -38.515625 L 21.578125 -15.15625 C 21.578125 -13.28125 22.101562 -11.894531 23.15625 -11 C 24.207031 -10.101562 25.597656 -9.65625 27.328125 -9.65625 Z M 27.328125 -9.65625 "></path></g></g></g><g fill="#000000" fill-opacity="1"><g transform="translate(357.013682, 221.243449)"><g><path d="M 26.984375 -39.9375 C 24.179688 -39.9375 21.984375 -39.046875 20.390625 -37.265625 C 18.804688 -35.492188 17.898438 -32.976562 17.671875 -29.71875 L 36.21875 -29.71875 C 36.15625 -32.976562 35.300781 -35.492188 33.65625 -37.265625 C 32.007812 -39.046875 29.785156 -39.9375 26.984375 -39.9375 Z M 28.84375 0.859375 C 21.050781 0.859375 14.957031 -1.289062 10.5625 -5.59375 C 6.175781 -9.894531 3.984375 -15.988281 3.984375 -23.875 C 3.984375 -31.988281 6.007812 -38.257812 10.0625 -42.6875 C 14.125 -47.125 19.738281 -49.34375 26.90625 -49.34375 C 33.75 -49.34375 39.078125 -47.390625 42.890625 -43.484375 C 46.703125 -39.585938 48.609375 -34.203125 48.609375 -27.328125 L 48.609375 -20.921875 L 17.375 -20.921875 C 17.519531 -17.171875 18.628906 -14.238281 20.703125 -12.125 C 22.785156 -10.019531 25.703125 -8.96875 29.453125 -8.96875 C 32.367188 -8.96875 35.125 -9.269531 37.71875 -9.875 C 40.320312 -10.476562 43.039062 -11.445312 45.875 -12.78125 L 45.875 -2.5625 C 43.5625 -1.40625 41.09375 -0.546875 38.46875 0.015625 C 35.84375 0.578125 32.632812 0.859375 28.84375 0.859375 Z M 28.84375 0.859375 "></path></g></g></g><g fill="#000000" fill-opacity="1"><g transform="translate(409.43307, 221.243449)"><g><path d="M 19.625 -26.34375 L 25.390625 -33.703125 L 38.9375 -48.4375 L 53.84375 -48.4375 L 34.609375 -27.421875 L 55.015625 0 L 39.765625 0 L 25.8125 -19.625 L 20.140625 -15.078125 L 20.140625 0 L 6.9375 0 L 6.9375 -67.40625 L 20.140625 -67.40625 L 20.140625 -37.34375 L 19.453125 -26.34375 Z M 19.625 -26.34375 "></path></g></g></g></g></g></g></g></g></g></mask><clipPath id="3e49765fe2"><path d="M 0 0.179688 L 517 0.179688 L 517 374.816406 L 0 374.816406 Z M 0 0.179688 " clip-rule="nonzero"></path></clipPath><clipPath id="6b3e9aae5f"><rect x="0" width="517" y="0" height="375"></rect></clipPath><clipPath id="69ac3662ab"><rect x="0" width="517" y="0" height="375"></rect></clipPath><clipPath id="434696c966"><rect x="0" width="517" y="0" height="375"></rect></clipPath></defs><g clip-path="url(#b827687234)"><g mask="url(#660071b417)"><g transform="matrix(0.364882, 0, 0, 0.365126, -53.52967, 3.882375)"><image x="0" y="0" width="1536" height="1024" preserveAspectRatio="xMidYMid meet"></image></g></g></g><g clip-path="url(#d35ca41a30)"><g transform="matrix(1, 0, 0, 1, 0, -0.000000000000042438)"><g clip-path="url(#434696c966)"><g clip-path="url(#640e8cd1a0)"><g transform="matrix(1, 0, 0, 1, 0, -0.000000000000042438)"><g clip-path="url(#69ac3662ab)"><g clip-path="url(#ff05ae5140)"><g mask="url(#e00df92b03)"><g transform="matrix(1, 0, 0, 1, 0, -0.000000000000042438)"><g clip-path="url(#6b3e9aae5f)"><g clip-path="url(#3e49765fe2)"><path fill="url(#f3576fa1d4)" d="M 0 0.179688 L 0 374.820312 L 517 374.820312 L 517 0.179688 Z M 0 0.179688 " fill-rule="nonzero"></path></g></g></g></g></g></g></g></g></g></g></g></svg>