<svg xmlns="http://www.w3.org/2000/svg" xmlns:xlink="http://www.w3.org/1999/xlink" width="690" zoomAndPan="magnify" viewBox="0 0 517.5 374.999991" height="500" preserveAspectRatio="xMidYMid meet" version="1.0"><defs><filter x="0%" y="0%" width="100%" height="100%" id="145e99dc62"><feColorMatrix values="0 0 0 0 1 0 0 0 0 1 0 0 0 0 1 0 0 0 1 0" color-interpolation-filters="sRGB"></feColorMatrix></filter><g></g><clipPath id="dc67e0f332"><path d="M 0 0.179688 L 517 0.179688 L 517 374.816406 L 0 374.816406 Z M 0 0.179688 " clip-rule="nonzero"></path></clipPath><clipPath id="825ed2d35c"><path d="M 0 0.179688 L 517 0.179688 L 517 374.816406 L 0 374.816406 Z M 0 0.179688 " clip-rule="nonzero"></path></clipPath><clipPath id="ed43cfa8d1"><path d="M 0 0.179688 L 517 0.179688 L 517 374.816406 L 0 374.816406 Z M 0 0.179688 " clip-rule="nonzero"></path></clipPath><clipPath id="e85569994c"><path d="M 0 0.179688 L 517 0.179688 L 517 374.816406 L 0 374.816406 Z M 0 0.179688 " clip-rule="nonzero"></path></clipPath><linearGradient x1="-123.457794" gradientTransform="matrix(0.936644, 0, 0, 0.937942, 115.636055, 126.064767)" y1="65.5" x2="428.513097" gradientUnits="userSpaceOnUse" y2="65.5" id="af177e383f"><stop stop-opacity="1" stop-color="rgb(0%, 31.369019%, 67.83905%)" offset="0"></stop><stop stop-opacity="1" stop-color="rgb(0%, 31.369019%, 67.83905%)" offset="0.125"></stop><stop stop-opacity="1" stop-color="rgb(0%, 31.369019%, 67.83905%)" offset="0.1875"></stop><stop stop-opacity="1" stop-color="rgb(0%, 31.369019%, 67.83905%)" offset="0.21875"></stop><stop stop-opacity="1" stop-color="rgb(0.0259399%, 31.437683%, 67.886353%)" offset="0.226562"></stop><stop stop-opacity="1" stop-color="rgb(0.125122%, 31.692505%, 68.058777%)" offset="0.234375"></stop><stop stop-opacity="1" stop-color="rgb(0.268555%, 32.063293%, 68.312073%)" offset="0.242188"></stop><stop stop-opacity="1" stop-color="rgb(0.413513%, 32.435608%, 68.565369%)" offset="0.25"></stop><stop stop-opacity="1" stop-color="rgb(0.558472%, 32.806396%, 68.817139%)" offset="0.257812"></stop><stop stop-opacity="1" stop-color="rgb(0.701904%, 33.178711%, 69.070435%)" offset="0.265625"></stop><stop stop-opacity="1" stop-color="rgb(0.846863%, 33.5495%, 69.32373%)" offset="0.273438"></stop><stop stop-opacity="1" stop-color="rgb(0.990295%, 33.920288%, 69.5755%)" offset="0.28125"></stop><stop stop-opacity="1" stop-color="rgb(1.135254%, 34.292603%, 69.828796%)" offset="0.289062"></stop><stop stop-opacity="1" stop-color="rgb(1.280212%, 34.663391%, 70.082092%)" offset="0.296875"></stop><stop stop-opacity="1" stop-color="rgb(1.423645%, 35.035706%, 70.333862%)" offset="0.304688"></stop><stop stop-opacity="1" stop-color="rgb(1.568604%, 35.406494%, 70.587158%)" offset="0.3125"></stop><stop stop-opacity="1" stop-color="rgb(1.713562%, 35.778809%, 70.840454%)" offset="0.320312"></stop><stop stop-opacity="1" stop-color="rgb(1.856995%, 36.149597%, 71.092224%)" offset="0.328125"></stop><stop stop-opacity="1" stop-color="rgb(2.001953%, 36.520386%, 71.34552%)" offset="0.335938"></stop><stop stop-opacity="1" stop-color="rgb(2.146912%, 36.8927%, 71.598816%)" offset="0.34375"></stop><stop stop-opacity="1" stop-color="rgb(2.290344%, 37.263489%, 71.850586%)" offset="0.351562"></stop><stop stop-opacity="1" stop-color="rgb(2.435303%, 37.635803%, 72.103882%)" offset="0.359375"></stop><stop stop-opacity="1" stop-color="rgb(2.580261%, 38.006592%, 72.357178%)" offset="0.367187"></stop><stop stop-opacity="1" stop-color="rgb(2.723694%, 38.378906%, 72.608948%)" offset="0.375"></stop><stop stop-opacity="1" stop-color="rgb(2.868652%, 38.749695%, 72.862244%)" offset="0.382812"></stop><stop stop-opacity="1" stop-color="rgb(3.013611%, 39.122009%, 73.11554%)" offset="0.390625"></stop><stop stop-opacity="1" stop-color="rgb(3.157043%, 39.492798%, 73.368835%)" offset="0.398438"></stop><stop stop-opacity="1" stop-color="rgb(3.302002%, 39.863586%, 73.620605%)" offset="0.40625"></stop><stop stop-opacity="1" stop-color="rgb(3.44696%, 40.235901%, 73.873901%)" offset="0.414062"></stop><stop stop-opacity="1" stop-color="rgb(3.590393%, 40.606689%, 74.127197%)" offset="0.421875"></stop><stop stop-opacity="1" stop-color="rgb(3.735352%, 40.979004%, 74.378967%)" offset="0.429687"></stop><stop stop-opacity="1" stop-color="rgb(3.878784%, 41.349792%, 74.632263%)" offset="0.4375"></stop><stop stop-opacity="1" stop-color="rgb(4.023743%, 41.722107%, 74.885559%)" offset="0.445312"></stop><stop stop-opacity="1" stop-color="rgb(4.168701%, 42.092896%, 75.137329%)" offset="0.453125"></stop><stop stop-opacity="1" stop-color="rgb(4.312134%, 42.463684%, 75.390625%)" offset="0.460937"></stop><stop stop-opacity="1" stop-color="rgb(4.457092%, 42.835999%, 75.643921%)" offset="0.46875"></stop><stop stop-opacity="1" stop-color="rgb(4.602051%, 43.206787%, 75.895691%)" offset="0.476562"></stop><stop stop-opacity="1" stop-color="rgb(4.745483%, 43.579102%, 76.148987%)" offset="0.484375"></stop><stop stop-opacity="1" stop-color="rgb(4.890442%, 43.94989%, 76.402283%)" offset="0.492187"></stop><stop stop-opacity="1" stop-color="rgb(5.0354%, 44.322205%, 76.654053%)" offset="0.5"></stop><stop stop-opacity="1" stop-color="rgb(5.178833%, 44.692993%, 76.907349%)" offset="0.507812"></stop><stop stop-opacity="1" stop-color="rgb(5.323792%, 45.063782%, 77.160645%)" offset="0.515625"></stop><stop stop-opacity="1" stop-color="rgb(5.46875%, 45.436096%, 77.412415%)" offset="0.523438"></stop><stop stop-opacity="1" stop-color="rgb(5.612183%, 45.806885%, 77.66571%)" offset="0.53125"></stop><stop stop-opacity="1" stop-color="rgb(5.757141%, 46.179199%, 77.919006%)" offset="0.539062"></stop><stop stop-opacity="1" stop-color="rgb(5.9021%, 46.549988%, 78.170776%)" offset="0.546875"></stop><stop stop-opacity="1" stop-color="rgb(6.045532%, 46.922302%, 78.424072%)" offset="0.554688"></stop><stop stop-opacity="1" stop-color="rgb(6.190491%, 47.293091%, 78.677368%)" offset="0.5625"></stop><stop stop-opacity="1" stop-color="rgb(6.335449%, 47.665405%, 78.929138%)" offset="0.570313"></stop><stop stop-opacity="1" stop-color="rgb(6.478882%, 48.036194%, 79.182434%)" offset="0.578125"></stop><stop stop-opacity="1" stop-color="rgb(6.62384%, 48.406982%, 79.43573%)" offset="0.585938"></stop><stop stop-opacity="1" stop-color="rgb(6.767273%, 48.779297%, 79.689026%)" offset="0.59375"></stop><stop stop-opacity="1" stop-color="rgb(6.912231%, 49.150085%, 79.940796%)" offset="0.601562"></stop><stop stop-opacity="1" stop-color="rgb(7.05719%, 49.5224%, 80.194092%)" offset="0.609375"></stop><stop stop-opacity="1" stop-color="rgb(7.200623%, 49.893188%, 80.447388%)" offset="0.617188"></stop><stop stop-opacity="1" stop-color="rgb(7.345581%, 50.265503%, 80.699158%)" offset="0.625"></stop><stop stop-opacity="1" stop-color="rgb(7.49054%, 50.636292%, 80.952454%)" offset="0.632812"></stop><stop stop-opacity="1" stop-color="rgb(7.633972%, 51.00708%, 81.20575%)" offset="0.640625"></stop><stop stop-opacity="1" stop-color="rgb(7.778931%, 51.379395%, 81.45752%)" offset="0.648437"></stop><stop stop-opacity="1" stop-color="rgb(7.923889%, 51.750183%, 81.710815%)" offset="0.65625"></stop><stop stop-opacity="1" stop-color="rgb(8.067322%, 52.122498%, 81.964111%)" offset="0.664062"></stop><stop stop-opacity="1" stop-color="rgb(8.21228%, 52.493286%, 82.215881%)" offset="0.671875"></stop><stop stop-opacity="1" stop-color="rgb(8.357239%, 52.865601%, 82.469177%)" offset="0.679687"></stop><stop stop-opacity="1" stop-color="rgb(8.500671%, 53.236389%, 82.722473%)" offset="0.6875"></stop><stop stop-opacity="1" stop-color="rgb(8.64563%, 53.607178%, 82.974243%)" offset="0.695312"></stop><stop stop-opacity="1" stop-color="rgb(8.790588%, 53.979492%, 83.227539%)" offset="0.703125"></stop><stop stop-opacity="1" stop-color="rgb(8.934021%, 54.350281%, 83.480835%)" offset="0.710938"></stop><stop stop-opacity="1" stop-color="rgb(9.078979%, 54.722595%, 83.732605%)" offset="0.71875"></stop><stop stop-opacity="1" stop-color="rgb(9.223938%, 55.093384%, 83.985901%)" offset="0.726562"></stop><stop stop-opacity="1" stop-color="rgb(9.367371%, 55.465698%, 84.239197%)" offset="0.734375"></stop><stop stop-opacity="1" stop-color="rgb(9.512329%, 55.836487%, 84.490967%)" offset="0.742188"></stop><stop stop-opacity="1" stop-color="rgb(9.655762%, 56.208801%, 84.744263%)" offset="0.75"></stop><stop stop-opacity="1" stop-color="rgb(9.80072%, 56.57959%, 84.997559%)" offset="0.757812"></stop><stop stop-opacity="1" stop-color="rgb(9.945679%, 56.950378%, 85.250854%)" offset="0.765625"></stop><stop stop-opacity="1" stop-color="rgb(10.089111%, 57.322693%, 85.502625%)" offset="0.773438"></stop><stop stop-opacity="1" stop-color="rgb(10.23407%, 57.693481%, 85.75592%)" offset="0.78125"></stop><stop stop-opacity="1" stop-color="rgb(10.379028%, 58.065796%, 86.009216%)" offset="0.789062"></stop><stop stop-opacity="1" stop-color="rgb(10.522461%, 58.436584%, 86.260986%)" offset="0.796875"></stop><stop stop-opacity="1" stop-color="rgb(10.667419%, 58.808899%, 86.514282%)" offset="0.804688"></stop><stop stop-opacity="1" stop-color="rgb(10.812378%, 59.179688%, 86.767578%)" offset="0.8125"></stop><stop stop-opacity="1" stop-color="rgb(10.931396%, 59.487915%, 86.976624%)" offset="0.875"></stop><stop stop-opacity="1" stop-color="rgb(10.978699%, 59.609985%, 87.059021%)" offset="1"></stop></linearGradient><clipPath id="42e57f1e55"><rect x="0" width="517" y="0" height="375"></rect></clipPath><clipPath id="895e7fe4e6"><path d="M 0 0.179688 L 517 0.179688 L 517 374.816406 L 0 374.816406 Z M 0 0.179688 " clip-rule="nonzero"></path></clipPath><clipPath id="9bc6e026c0"><rect x="0" width="517" y="0" height="375"></rect></clipPath><clipPath id="620b186e30"><rect x="0" width="517" y="0" height="375"></rect></clipPath><mask id="c512d9f6ec"><g filter="url(#145e99dc62)"><g transform="matrix(1, 0, 0, 1, 0, -0.000000000000042438)"><g clip-path="url(#620b186e30)"><g clip-path="url(#895e7fe4e6)"><g transform="matrix(1, 0, 0, 1, 0, -0.000000000000042438)"><g clip-path="url(#9bc6e026c0)"><g fill="#000000" fill-opacity="1"><g transform="translate(115.452453, 221.243449)"><g><path d="M 58.921875 0 L 43.671875 0 L 27.078125 -26.6875 L 21.40625 -22.609375 L 21.40625 0 L 7.96875 0 L 7.96875 -63.328125 L 21.40625 -63.328125 L 21.40625 -34.359375 L 26.6875 -41.796875 L 43.84375 -63.328125 L 58.734375 -63.328125 L 36.65625 -35.3125 Z M 58.921875 0 "></path></g></g></g><g fill="#000000" fill-opacity="1"><g transform="translate(174.370096, 221.243449)"><g><path d="M 41.234375 0 L 39.46875 -6.1875 L 38.765625 -6.1875 C 37.359375 -3.9375 35.351562 -2.195312 32.75 -0.96875 C 30.144531 0.25 27.1875 0.859375 23.875 0.859375 C 18.175781 0.859375 13.882812 -0.660156 11 -3.703125 C 8.113281 -6.753906 6.671875 -11.132812 6.671875 -16.84375 L 6.671875 -48.4375 L 19.890625 -48.4375 L 19.890625 -20.140625 C 19.890625 -16.648438 20.507812 -14.03125 21.75 -12.28125 C 22.988281 -10.53125 24.96875 -9.65625 27.6875 -9.65625 C 31.375 -9.65625 34.039062 -10.890625 35.6875 -13.359375 C 37.34375 -15.828125 38.171875 -19.921875 38.171875 -25.640625 L 38.171875 -48.4375 L 51.375 -48.4375 L 51.375 0 Z M 41.234375 0 "></path></g></g></g><g fill="#000000" fill-opacity="1"><g transform="translate(232.681235, 221.243449)"><g><path d="M 40.71875 -14.375 C 40.71875 -9.414062 38.988281 -5.632812 35.53125 -3.03125 C 32.082031 -0.4375 26.925781 0.859375 20.0625 0.859375 C 16.53125 0.859375 13.523438 0.617188 11.046875 0.140625 C 8.566406 -0.328125 6.242188 -1.023438 4.078125 -1.953125 L 4.078125 -12.859375 C 6.523438 -11.710938 9.285156 -10.75 12.359375 -9.96875 C 15.441406 -9.1875 18.148438 -8.796875 20.484375 -8.796875 C 25.285156 -8.796875 27.6875 -10.179688 27.6875 -12.953125 C 27.6875 -13.992188 27.367188 -14.835938 26.734375 -15.484375 C 26.097656 -16.140625 25 -16.878906 23.4375 -17.703125 C 21.875 -18.523438 19.796875 -19.484375 17.203125 -20.578125 C 13.472656 -22.140625 10.734375 -23.582031 8.984375 -24.90625 C 7.242188 -26.238281 5.972656 -27.765625 5.171875 -29.484375 C 4.378906 -31.203125 3.984375 -33.316406 3.984375 -35.828125 C 3.984375 -40.128906 5.648438 -43.457031 8.984375 -45.8125 C 12.328125 -48.164062 17.054688 -49.34375 23.171875 -49.34375 C 29.003906 -49.34375 34.679688 -48.070312 40.203125 -45.53125 L 36.21875 -36 C 33.789062 -37.039062 31.519531 -37.890625 29.40625 -38.546875 C 27.300781 -39.210938 25.148438 -39.546875 22.953125 -39.546875 C 19.054688 -39.546875 17.109375 -38.492188 17.109375 -36.390625 C 17.109375 -35.203125 17.734375 -34.175781 18.984375 -33.3125 C 20.242188 -32.445312 23 -31.160156 27.25 -29.453125 C 31.03125 -27.921875 33.800781 -26.488281 35.5625 -25.15625 C 37.320312 -23.832031 38.617188 -22.304688 39.453125 -20.578125 C 40.296875 -18.847656 40.71875 -16.78125 40.71875 -14.375 Z M 40.71875 -14.375 "></path></g></g></g><g fill="#000000" fill-opacity="1"><g transform="translate(276.782824, 221.243449)"><g><path d="M 27.328125 -9.65625 C 29.640625 -9.65625 32.414062 -10.160156 35.65625 -11.171875 L 35.65625 -1.34375 C 32.363281 0.125 28.316406 0.859375 23.515625 0.859375 C 18.234375 0.859375 14.382812 -0.472656 11.96875 -3.140625 C 9.5625 -5.804688 8.359375 -9.8125 8.359375 -15.15625 L 8.359375 -38.515625 L 2.03125 -38.515625 L 2.03125 -44.09375 L 9.3125 -48.515625 L 13.125 -58.734375 L 21.578125 -58.734375 L 21.578125 -48.4375 L 35.125 -48.4375 L 35.125 -38.515625 L 21.578125 -38.515625 L 21.578125 -15.15625 C 21.578125 -13.28125 22.101562 -11.894531 23.15625 -11 C 24.207031 -10.101562 25.597656 -9.65625 27.328125 -9.65625 Z M 27.328125 -9.65625 "></path></g></g></g><g fill="#000000" fill-opacity="1"><g transform="translate(315.295901, 221.243449)"><g><path d="M 26.984375 -39.9375 C 24.179688 -39.9375 21.984375 -39.046875 20.390625 -37.265625 C 18.804688 -35.492188 17.898438 -32.976562 17.671875 -29.71875 L 36.21875 -29.71875 C 36.15625 -32.976562 35.300781 -35.492188 33.65625 -37.265625 C 32.007812 -39.046875 29.785156 -39.9375 26.984375 -39.9375 Z M 28.84375 0.859375 C 21.050781 0.859375 14.957031 -1.289062 10.5625 -5.59375 C 6.175781 -9.894531 3.984375 -15.988281 3.984375 -23.875 C 3.984375 -31.988281 6.007812 -38.257812 10.0625 -42.6875 C 14.125 -47.125 19.738281 -49.34375 26.90625 -49.34375 C 33.75 -49.34375 39.078125 -47.390625 42.890625 -43.484375 C 46.703125 -39.585938 48.609375 -34.203125 48.609375 -27.328125 L 48.609375 -20.921875 L 17.375 -20.921875 C 17.519531 -17.171875 18.628906 -14.238281 20.703125 -12.125 C 22.785156 -10.019531 25.703125 -8.96875 29.453125 -8.96875 C 32.367188 -8.96875 35.125 -9.269531 37.71875 -9.875 C 40.320312 -10.476562 43.039062 -11.445312 45.875 -12.78125 L 45.875 -2.5625 C 43.5625 -1.40625 41.09375 -0.546875 38.46875 0.015625 C 35.84375 0.578125 32.632812 0.859375 28.84375 0.859375 Z M 28.84375 0.859375 "></path></g></g></g><g fill="#000000" fill-opacity="1"><g transform="translate(367.715289, 221.243449)"><g><path d="M 19.625 -26.34375 L 25.390625 -33.703125 L 38.9375 -48.4375 L 53.84375 -48.4375 L 34.609375 -27.421875 L 55.015625 0 L 39.765625 0 L 25.8125 -19.625 L 20.140625 -15.078125 L 20.140625 0 L 6.9375 0 L 6.9375 -67.40625 L 20.140625 -67.40625 L 20.140625 -37.34375 L 19.453125 -26.34375 Z M 19.625 -26.34375 "></path></g></g></g></g></g></g></g></g></g></mask><clipPath id="360a935f75"><path d="M 0 0.179688 L 517 0.179688 L 517 374.816406 L 0 374.816406 Z M 0 0.179688 " clip-rule="nonzero"></path></clipPath><clipPath id="474065db40"><rect x="0" width="517" y="0" height="375"></rect></clipPath><clipPath id="40a4896854"><rect x="0" width="517" y="0" height="375"></rect></clipPath><clipPath id="9da8edb7c8"><rect x="0" width="517" y="0" height="375"></rect></clipPath></defs><g clip-path="url(#dc67e0f332)"><g transform="matrix(1, 0, 0, 1, 0, -0.000000000000042438)"><g clip-path="url(#9da8edb7c8)"><g clip-path="url(#825ed2d35c)"><g transform="matrix(1, 0, 0, 1, 0, -0.000000000000042438)"><g clip-path="url(#40a4896854)"><g clip-path="url(#ed43cfa8d1)"><g mask="url(#c512d9f6ec)"><g transform="matrix(1, 0, 0, 1, 0, -0.000000000000042438)"><g clip-path="url(#474065db40)"><g clip-path="url(#360a935f75)"><path fill="url(#af177e383f)" d="M 0 0.179688 L 0 374.820312 L 517 374.820312 L 517 0.179688 Z M 0 0.179688 " fill-rule="nonzero"></path></g></g></g></g></g></g></g></g></g></g></g></svg>